# xmcd CD Database Entry
#
# Track frame offsets:
# 150
# 69171
# 109162
# 145210
# 192791
#
# Disc length: 3621 seconds
#
# Revision: 2
# Processed by: cddbd v1.4PL0 Copyright (c) Steve Scherf et al.
# Submitted via: tcd 2.0b
#
DISCID=3f0e2305
DTITLE=Phish Cincinnati 2/21/03 US Bank Arena
DYEAR=1900
DGENRE=
TTITLE0=Mikes Song
TTITLE1=Free
TTITLE2=Waste
TTITLE3=2001
TTITLE4=Harry Hood
EXTD=
EXTT0=
EXTT1=
EXTT2=
EXTT3=
EXTT4=
PLAYORDER=
